<?xml version="1.0" standalone="no"?>
<!DOCTYPE svg PUBLIC "-//W3C//DTD SVG 20010904//EN"
 "http://www.w3.org/TR/2001/REC-SVG-20010904/DTD/svg10.dtd">
<svg version="1.0" xmlns="http://www.w3.org/2000/svg"
 width="512.000000pt" height="512.000000pt" viewBox="0 0 512.000000 512.000000"
 preserveAspectRatio="xMidYMid meet">

<g transform="translate(0.000000,512.000000) scale(0.100000,-0.100000)"
fill="#000000" stroke="none">
<path d="M945 5108 c-45 -26 -44 -12 -45 -670 l0 -627 24 -28 24 -28 249 -3
249 -3 79 -157 c69 -135 85 -159 113 -171 l33 -15 -3 -80 -3 -81 -81 -3 -81
-3 -6 62 c-4 44 -11 67 -28 85 l-22 24 -628 0 c-345 0 -635 -3 -644 -6 -38
-15 -45 -55 -45 -253 0 -186 0 -190 24 -218 l24 -28 621 -3 c696 -3 671 -5
690 66 6 20 11 52 11 70 l0 32 85 0 85 0 0 -57 c1 -87 30 -113 127 -113 l59 0
34 -142 c28 -115 40 -148 62 -170 l26 -28 202 0 c246 0 233 -7 274 155 15 61
31 126 37 146 l9 37 71 4 c63 3 74 7 95 31 24 28 24 31 24 253 l0 225 31 11
c26 9 41 31 110 169 l79 159 190 0 190 0 -2 -1447 -3 -1448 -277 -3 c-153 -1
-278 0 -278 2 0 3 27 30 59 61 65 62 120 157 142 245 11 41 14 142 14 403 l0
349 -28 24 -28 24 -713 0 c-694 0 -713 0 -733 -20 -12 -10 -24 -28 -28 -39 -6
-19 -17 -20 -236 -23 l-231 -3 -24 -28 -24 -28 0 -284 0 -284 24 -28 24 -28
235 -3 235 -3 12 -47 c19 -77 71 -163 138 -230 l63 -62 -341 0 -341 0 -24 -25
-25 -24 0 -373 c1 -393 1 -392 47 -416 16 -9 515 -12 1998 -12 2110 0 2021 -2
2039 45 8 22 8 5008 0 5030 -18 47 71 45 -2041 45 -1469 -1 -1983 -4 -1998
-12z m3875 -668 l0 -510 -1875 0 -1875 0 0 510 0 510 1875 0 1875 0 0 -510z
m-2142 -775 l-42 -85 -458 0 -458 0 -40 80 c-22 44 -40 82 -40 85 0 3 243 5
540 5 l540 0 -42 -85z m2142 -1365 l0 -1450 -680 0 -680 0 0 1450 0 1450 680
0 680 0 0 -1450z m-2300 940 l0 -170 -340 0 -340 0 0 170 0 170 340 0 340 0 0
-170z m-1200 -85 l0 -85 -510 0 -510 0 0 85 0 85 510 0 510 0 0 -85z m1000
-267 c0 -7 -9 -44 -18 -83 l-18 -70 -105 -3 -105 -3 -21 86 -20 85 143 0 c109
0 144 -3 144 -12z m458 -1385 c-4 -270 -5 -292 -27 -345 -29 -75 -95 -146
-168 -183 l-58 -30 -345 0 -345 0 -55 26 c-63 31 -106 68 -144 126 -49 74 -56
123 -56 421 l0 272 601 0 601 0 -4 -287z m-1368 37 l0 -170 -170 0 -170 0 0
170 0 170 170 0 170 0 0 -170z m3410 -1115 l0 -255 -1875 0 -1875 0 0 255 0
255 1875 0 1875 0 0 -255z"/>
<path d="M2090 4765 c-252 -70 -335 -381 -151 -566 77 -76 146 -103 256 -97
94 5 162 35 226 99 128 128 126 350 -4 477 -84 82 -216 117 -327 87z m147
-170 c50 -21 72 -42 94 -90 24 -52 24 -89 -2 -142 -31 -63 -92 -97 -165 -91
-90 8 -144 62 -152 151 -10 128 110 220 225 172z"/>
<path d="M2690 4435 l0 -85 85 0 85 0 0 85 0 85 -85 0 -85 0 0 -85z"/>
<path d="M3030 4435 l0 -85 85 0 85 0 0 85 0 85 -85 0 -85 0 0 -85z"/>
<path d="M3710 1450 l0 -340 85 0 85 0 0 340 0 340 -85 0 -85 0 0 -340z"/>
<path d="M4060 1450 l0 -340 85 0 85 0 0 340 0 340 -85 0 -85 0 0 -340z"/>
<path d="M4400 1450 l0 -340 85 0 85 0 0 340 0 340 -85 0 -85 0 0 -340z"/>
</g>
</svg>
