<?xml version="1.0" standalone="no"?>
<!DOCTYPE svg PUBLIC "-//W3C//DTD SVG 20010904//EN"
 "http://www.w3.org/TR/2001/REC-SVG-20010904/DTD/svg10.dtd">
<svg version="1.0" xmlns="http://www.w3.org/2000/svg"
 width="200.000000pt" height="200.000000pt" viewBox="0 0 200.000000 200.000000"
 preserveAspectRatio="xMidYMid meet">

<g transform="translate(0.000000,200.000000) scale(0.100000,-0.100000)"
fill="#000000" stroke="none">
<path d="M1314 1287 c-3 -8 -4 -43 -2 -78 l3 -64 340 0 340 0 0 75 0 75 -338
3 c-278 2 -338 0 -343 -11z"/>
<path d="M106 1190 c-68 -21 -115 -102 -102 -174 9 -46 57 -101 101 -116 26
-9 107 -4 379 20 316 28 349 29 375 15 44 -22 333 -22 355 1 9 8 16 22 16 30
0 10 12 14 40 14 l40 0 0 75 0 75 -40 0 c-28 0 -40 4 -40 14 0 8 -7 22 -16 30
-24 24 -304 23 -345 -1 -26 -16 -46 -16 -321 0 -161 10 -320 19 -353 22 -33 2
-73 0 -89 -5z"/>
<path d="M1362 978 l3 -103 91 -25 c111 -30 133 -45 143 -90 6 -33 9 -35 50
-38 47 -3 61 7 61 44 0 35 41 60 135 83 49 12 95 27 102 33 9 7 13 41 13 104
l0 94 -300 0 -301 0 3 -102z"/>
<path d="M1621 615 c-17 -37 -31 -78 -31 -90 0 -29 30 -55 63 -55 28 0 67 31
67 53 0 14 -53 143 -63 153 -3 3 -20 -24 -36 -61z"/>
</g>
</svg>
